<svg width="1080" height="1080" viewBox="0 0 1080 1080" fill="none" xmlns="http://www.w3.org/2000/svg">
<g clip-path="url(#clip0_125_919)">
<rect width="1080" height="1080" fill="url(#paint0_linear_125_919)"/>
<path d="M764.058 1106.59C918.175 1113.4 986.448 1112.54 992.625 1081.21C1003.91 999.431 992.625 917.653 967.228 773.838C964.207 668.26 896.683 567.985 851.534 379.052C854.595 339.416 854.9 317.191 840.247 277.535C783.81 207.038 783.81 156.28 716.087 145C593.926 175.627 524.203 201.398 529.847 226.777C534.968 255.888 541.229 265.667 555.243 277.535C531.363 286.225 526.244 299.008 529.847 333.934C590.118 423.295 631.119 454.538 716.087 477.749C709.784 644.94 716.087 740 730.196 897.914C606.036 556.706 196.873 582.085 84 909.194C148.902 1196.82 764.058 1106.59 764.058 1106.59Z" fill="white" fill-opacity="0.5"/>
</g>
<defs>
<linearGradient id="paint0_linear_125_919" x1="0" y1="567.75" x2="1080" y2="567.75" gradientUnits="userSpaceOnUse">
<stop stop-color="#AE3BC2"/>
<stop offset="1" stop-color="#60189B"/>
</linearGradient>
<clipPath id="clip0_125_919">
<rect width="1080" height="1080" fill="white"/>
</clipPath>
</defs>
</svg>
